<?xml version="1.0" encoding="UTF-8"?>
<svg width="512px" height="512px" viewBox="0 0 512 512" version="1.1" xmlns="http://www.w3.org/2000/svg" xmlns:xlink="http://www.w3.org/1999/xlink">
    <title>baby</title>
    <g id="Page-1" stroke="none" stroke-width="1" fill="none" fill-rule="evenodd">
        <g id="baby" fill-rule="nonzero">
            <path d="M425.39,200.035 C401.391177,143.673177 350.956305,102.919186 290.812,91.289 L317.568,48.48 L290.432,31.52 L255.127,88.008 C181.623914,88.3490018 115.371995,132.392059 86.61,200.035 C47.3979321,200.780359 15.9999397,232.780849 15.9999397,272 C15.9999397,311.219151 47.3979321,343.219641 86.61,343.965 C115.499546,411.897863 182.179408,456.000169 256,456.000169 C329.820592,456.000169 396.500454,411.897863 425.39,343.965 C464.602068,343.219641 496.00006,311.219151 496.00006,272 C496.00006,232.780849 464.602068,200.780359 425.39,200.035 Z M452.542,300.01 C445.223517,307.495161 435.248906,311.792939 424.782,311.971 L404.057,312.365 L395.944,331.439 C372.080972,387.567535 316.991127,424.008066 256.0005,424.008066 C195.009873,424.008066 139.920028,387.567535 116.057,331.439 L107.943,312.365 L87.218,311.971 C65.4341778,311.563296 47.9880929,293.787637 47.9880929,272 C47.9880929,250.212363 65.4341778,232.436704 87.218,232.029 L107.943,231.635 L116.057,212.561 C139.920719,156.433252 195.010327,119.99349 256.0005,119.99349 C316.990673,119.99349 372.080281,156.433252 395.944,212.561 L404.057,231.635 L424.782,232.029 C440.745326,232.330722 454.998083,242.102618 461.034011,256.883903 C467.06994,271.665188 463.73124,288.620544 452.542,300.01 L452.542,300.01 Z" id="Shape" fill="#FFFFFF"></path>
            <polygon id="Path" fill="#FFFFFF" points="168 232 208 232 208 272 168 272"></polygon>
            <polygon id="Path" fill="#FFFFFF" points="304 232 344 232 344 272 304 272"></polygon>
            <path d="M256,384 C277.217319,384 297.565632,375.571453 312.568542,360.568542 C327.571453,345.565632 336,325.217319 336,304 L176,304 C176,348.18278 211.81722,384 256,384 L256,384 Z" id="Path" fill="#FFFFFF"></path>
            <rect id="Rectangle" fill-opacity="0" fill="#000000" x="0" y="0" width="512" height="512"></rect>
        </g>
    </g>
</svg>